
<svg xmlns="http://www.w3.org/2000/svg">

<symbol id="transparent-star" viewBox="0 0 243 242">
<path d="M121.5 0V241.011" stroke="white" stroke-opacity="0.05" stroke-width="19"/>
  <path d="M207.088 35.6743L35.9123 205.337" stroke="white" stroke-opacity="0.05" stroke-width="19"/>
  <path d="M205.249 207.152L37.7508 33.8588" stroke="white" stroke-opacity="0.05" stroke-width="19"/>
  <path d="M242 119.351L0.99999 121.66" stroke="white" stroke-opacity="0.05" stroke-width="19"/>
</symbol>

<symbol id="primary-star" viewBox="0 0 140 138">
  <path d="M70 0V138.006" stroke="#0EF7B5" stroke-width="6"/>
    <path d="M119.009 20.4276L20.9913 117.579" stroke="#0EF7B5" stroke-width="6"/>
    <path d="M117.956 118.618L22.044 19.388" stroke="#0EF7B5" stroke-width="6"/>
    <path d="M139 68.3421L1 69.6641" stroke="#0EF7B5" stroke-width="6"/>
</symbol>

  <!-- Left Arrow Symbol -->
  <symbol id="left-arrow" viewBox="0 0 24 24" width="30" height="30" fill="none" stroke="currentColor" stroke-width="2" stroke-linecap="round" stroke-linejoin="round">
     <path d="M19 12H6M12 5l-7 7 7 7"/>
  </symbol>

  <!-- Right Arrow Symbol -->
  <symbol id="right-arrow" viewBox="0 0 24 24" width="30" height="30" fill="none" stroke="currentColor" stroke-width="2" stroke-linecap="round" stroke-linejoin="round">
    <path d="M5 12h13M12 5l7 7-7 7"/>
  </symbol>

  <!-- filled right arrow -->
  <symbol id="filled-right-arrow" width="19" height="22" viewBox="0 0 19 22" fill="none">
  <path d="M18.2 10.8999L9.1 16.0999L0 21.3999V10.8999V0.399902L9.1 5.5999L18.2 10.8999Z" fill="#0EF6B5"/>
</symbol>

 <!-- no filled right arrow -->
  <symbol id="no-filled-right-arrow" width="19" height="22" viewBox="0 0 19 22" fill="none">
  <path d="M18.5 23.8V0L39 11.9L18.5 23.8ZM20 2.7V21L35.8 11.9L20 2.7Z" fill="#939393"/>
</symbol>


</svg>